<?xml version="1.0" encoding="utf-8" standalone="no"?><svg width ="88.525" height ="162.875" xmlns ="http://www.w3.org/2000/svg" xmlns:xlink ="http://www.w3.org/1999/xlink" id = "svg_0" viewBox = "0mm 0mm 88.525mm 162.875mm" version = "1.1" shape-rendering="geometricPrecision"><path fill="none" fill-opacity="0" stroke="#000000" stroke-opacity="1" stroke-width="0.25" stroke-linecap="round" stroke-linejoin="round" shape-rendering="geometricPrecision" d = "M88.525,0 L88.525,0 L88.525,1 " /><path fill="none" fill-opacity="0" stroke="#000000" stroke-opacity="1" stroke-width="0.25" stroke-linecap="round" stroke-linejoin="round" shape-rendering="geometricPrecision" d = "M38.025,25.85 L38.025,26.175 L38.05,26.175 L38.05,26.175 L38.05,26.175 L38.05,26.175 L38.05,26.175 L38.025,33.775 L37.975,34.525 L37.85,35.25 L37.425,36.65 L36.725,37.9 L36.3,38.45 L35.825,38.975 L35.3,39.45 L34.725,39.875 L33.45,40.55 L32.05,41 L31.325,41.1 L30.55,41.15 L17.875,41.15 L17.1,41.1 L16.375,41 L14.975,40.55 L13.7,39.875 L13.125,39.45 L12.6,38.975 L12.125,38.45 L11.7,37.9 L11,36.65 L10.575,35.25 L10.45,34.525 L10.425,33.775 L10.425,17.95 L10.45,17.2 L10.575,16.475 L11,15.1 L11.7,13.85 L12.125,13.275 L12.6,12.75 L13.125,12.275 L13.7,11.85 L14.975,11.175 L16.375,10.75 L17.1,10.65 L17.875,10.6 L30.55,10.6 L31.325,10.65 L32.05,10.75 L33.45,11.175 L34.725,11.85 L35.3,12.275 L35.825,12.75 L36.3,13.275 L36.725,13.85 L37.425,15.1 L37.85,16.475 L37.975,17.2 L38.025,17.95 L38.025,25.85 L38.05,26.575 " /><path fill="none" fill-opacity="0" stroke="#000000" stroke-opacity="1" stroke-width="0.25" stroke-linecap="round" stroke-linejoin="round" shape-rendering="geometricPrecision" d = "M44.275,159.85 L44.3,160.175 L44.2,160.175 L44.1,160.125 L44,160.05 L43.95,159.95 L43.95,159.85 L41.075,159.85 L40.5,159.725 L40.025,159.425 L39.725,158.95 L39.6,158.4 L39.725,157.825 L40.025,157.35 L40.5,157.05 L41.075,156.925 L47.45,156.925 L48.025,157.05 L48.475,157.35 L48.8,157.825 L48.9,158.4 L48.8,158.95 L48.475,159.425 L48.025,159.725 L47.45,159.85 L44.275,159.85 L43.55,159.825 " /><path fill="none" fill-opacity="0" stroke="#000000" stroke-opacity="1" stroke-width="0.25" stroke-linecap="round" stroke-linejoin="round" shape-rendering="geometricPrecision" d = "M51.675,158.9 L51.35,158.875 L51.35,158.875 L51.35,158.975 L51.4,159.075 L51.475,159.15 L51.6,159.225 L51.575,159.35 L51.35,159.7 L51,159.95 L50.55,160.025 L50.125,159.95 L49.775,159.7 L49.525,159.35 L49.45,158.9 L49.525,158.475 L49.775,158.125 L50.125,157.875 L50.55,157.8 L51,157.875 L51.35,158.125 L51.575,158.475 L51.675,158.9 L51.5,159.675 " /><path fill="none" fill-opacity="0" stroke="#000000" stroke-opacity="1" stroke-width="0.25" stroke-linecap="round" stroke-linejoin="round" shape-rendering="geometricPrecision" d = "M38.975,158.9 L38.9,159.225 L38.875,159.35 L38.65,159.7 L38.3,159.95 L37.85,160.025 L37.425,159.95 L37.075,159.7 L36.825,159.35 L36.75,158.9 L36.825,158.475 L37.075,158.125 L37.425,157.875 L37.85,157.8 L38.3,157.875 L38.65,158.125 L38.875,158.475 L38.975,158.9 L38.8,159.675 " /><path fill="none" fill-opacity="0" stroke="#000000" stroke-opacity="1" stroke-width="0.25" stroke-linecap="round" stroke-linejoin="round" shape-rendering="geometricPrecision" d = "M67.9,158.8 L67.825,159.125 L67.575,158.8 L67.575,158.8 L67.575,158.8 L67.575,158.8 L67.85,159.125 L67.825,159.175 L67.625,159.475 L67.325,159.675 L66.95,159.75 L66.575,159.675 L66.275,159.475 L66.075,159.175 L66,158.8 L66.075,158.425 L66.275,158.125 L66.575,157.925 L66.95,157.85 L67.325,157.925 L67.625,158.125 L67.825,158.425 L67.9,158.8 L67.775,159.5 " /><path fill="none" fill-opacity="0" stroke="#000000" stroke-opacity="1" stroke-width="0.25" stroke-linecap="round" stroke-linejoin="round" shape-rendering="geometricPrecision" d = "M65.625,158.8 L65.575,159.125 L65.55,159.175 L65.35,159.475 L65.05,159.675 L64.675,159.75 L64.325,159.675 L64.025,159.475 L63.825,159.175 L63.75,158.8 L63.825,158.425 L64.025,158.125 L64.325,157.925 L64.675,157.85 L65.05,157.925 L65.35,158.125 L65.55,158.425 L65.625,158.8 L65.5,159.5 " /><path fill="none" fill-opacity="0" stroke="#000000" stroke-opacity="1" stroke-width="0.25" stroke-linecap="round" stroke-linejoin="round" shape-rendering="geometricPrecision" d = "M63.45,158.8 L63.4,159.125 L63.375,159.175 L63.15,159.475 L62.85,159.675 L62.5,159.75 L62.125,159.675 L61.825,159.475 L61.625,159.175 L61.55,158.8 L61.625,158.425 L61.825,158.125 L62.125,157.925 L62.5,157.85 L62.85,157.925 L63.15,158.125 L63.375,158.425 L63.45,158.8 L63.325,159.5 " /><path fill="none" fill-opacity="0" stroke="#000000" stroke-opacity="1" stroke-width="0.25" stroke-linecap="round" stroke-linejoin="round" shape-rendering="geometricPrecision" d = "M61.15,158.8 L61.1,159.125 L61.075,159.175 L60.875,159.475 L60.55,159.675 L60.2,159.75 L59.825,159.675 L59.525,159.475 L59.325,159.175 L59.25,158.8 L59.325,158.425 L59.525,158.125 L59.825,157.925 L60.2,157.85 L60.55,157.925 L60.875,158.125 L61.075,158.425 L61.15,158.8 L61.025,159.5 " /><path fill="none" fill-opacity="0" stroke="#000000" stroke-opacity="1" stroke-width="0.25" stroke-linecap="round" stroke-linejoin="round" shape-rendering="geometricPrecision" d = "M58.9,158.8 L58.85,159.125 L58.825,159.175 L58.625,159.475 L58.325,159.675 L57.95,159.75 L57.575,159.675 L57.275,159.475 L57.075,159.175 L57,158.8 L57.075,158.425 L57.275,158.125 L57.575,157.925 L57.95,157.85 L58.325,157.925 L58.625,158.125 L58.825,158.425 L58.9,158.8 L58.775,159.5 " /><path fill="none" fill-opacity="0" stroke="#000000" stroke-opacity="1" stroke-width="0.25" stroke-linecap="round" stroke-linejoin="round" shape-rendering="geometricPrecision" d = "M56.6,158.8 L56.55,159.125 L56.525,159.175 L56.325,159.475 L56.025,159.675 L55.65,159.75 L55.275,159.675 L54.975,159.475 L54.775,159.175 L54.7,158.8 L54.775,158.425 L54.975,158.125 L55.275,157.925 L55.65,157.85 L56.025,157.925 L56.325,158.125 L56.525,158.425 L56.6,158.8 L56.475,159.5 " /><path fill="none" fill-opacity="0" stroke="#000000" stroke-opacity="1" stroke-width="0.25" stroke-linecap="round" stroke-linejoin="round" shape-rendering="geometricPrecision" d = "M33.725,158.8 L33.675,159.125 L33.65,159.175 L33.45,159.475 L33.15,159.675 L32.775,159.75 L32.4,159.675 L32.1,159.475 L31.9,159.175 L31.825,158.8 L31.9,158.425 L32.1,158.125 L32.4,157.925 L32.775,157.85 L33.15,157.925 L33.45,158.125 L33.65,158.425 L33.725,158.8 L33.6,159.5 " /><path fill="none" fill-opacity="0" stroke="#000000" stroke-opacity="1" stroke-width="0.25" stroke-linecap="round" stroke-linejoin="round" shape-rendering="geometricPrecision" d = "M31.425,158.8 L31.375,159.125 L31.35,159.175 L31.15,159.475 L30.85,159.675 L30.475,159.75 L30.1,159.675 L29.8,159.475 L29.6,159.175 L29.525,158.8 L29.6,158.425 L29.8,158.125 L30.1,157.925 L30.475,157.85 L30.85,157.925 L31.15,158.125 L31.35,158.425 L31.425,158.8 L31.3,159.5 " /><path fill="none" fill-opacity="0" stroke="#000000" stroke-opacity="1" stroke-width="0.25" stroke-linecap="round" stroke-linejoin="round" shape-rendering="geometricPrecision" d = "M29.175,158.8 L29.125,159.125 L29.1,159.175 L28.9,159.475 L28.6,159.675 L28.225,159.75 L27.85,159.675 L27.55,159.475 L27.35,159.175 L27.275,158.8 L27.35,158.425 L27.55,158.125 L27.85,157.925 L28.225,157.85 L28.6,157.925 L28.9,158.125 L29.1,158.425 L29.175,158.8 L29.05,159.5 " /><path fill="none" fill-opacity="0" stroke="#000000" stroke-opacity="1" stroke-width="0.25" stroke-linecap="round" stroke-linejoin="round" shape-rendering="geometricPrecision" d = "M26.875,158.8 L26.825,159.125 L26.8,159.175 L26.6,159.475 L26.3,159.675 L25.925,159.75 L25.575,159.675 L25.275,159.475 L25.05,159.175 L24.975,158.8 L25.05,158.425 L25.275,158.125 L25.575,157.925 L25.925,157.85 L26.3,157.925 L26.6,158.125 L26.8,158.425 L26.875,158.8 L26.75,159.5 " /><path fill="none" fill-opacity="0" stroke="#000000" stroke-opacity="1" stroke-width="0.25" stroke-linecap="round" stroke-linejoin="round" shape-rendering="geometricPrecision" d = "M24.675,158.8 L24.625,159.125 L24.6,159.175 L24.4,159.475 L24.1,159.675 L23.75,159.75 L23.375,159.675 L23.075,159.475 L22.875,159.175 L22.8,158.8 L22.875,158.425 L23.075,158.125 L23.375,157.925 L23.75,157.85 L24.1,157.925 L24.4,158.125 L24.6,158.425 L24.675,158.8 L24.55,159.5 " /><path fill="none" fill-opacity="0" stroke="#000000" stroke-opacity="1" stroke-width="0.25" stroke-linecap="round" stroke-linejoin="round" shape-rendering="geometricPrecision" d = "M22.4,158.8 L22.35,159.125 L22.325,159.175 L22.125,159.475 L21.825,159.675 L21.45,159.75 L21.1,159.675 L20.8,159.475 L20.575,159.175 L20.5,158.8 L20.575,158.425 L20.8,158.125 L21.1,157.925 L21.45,157.85 L21.825,157.925 L22.125,158.125 L22.325,158.425 L22.4,158.8 L22.275,159.5 " /><path fill="none" fill-opacity="0" stroke="#000000" stroke-opacity="1" stroke-width="0.25" stroke-linecap="round" stroke-linejoin="round" shape-rendering="geometricPrecision" d = "M82.975,55.25 L82.925,55.575 L82.7,55.45 L82.65,55.275 L82.675,55.075 L82.8,54.95 L82.975,54.9 L82.975,50.825 L83.1,50.175 L83.45,49.65 L83.975,49.3 L84.625,49.15 L85.275,49.3 L85.8,49.65 L86.15,50.175 L86.275,50.825 L86.275,59.675 L86.15,60.3 L85.8,60.85 L85.275,61.2 L84.625,61.325 L83.975,61.2 L83.45,60.85 L83.1,60.3 L82.975,59.675 L82.975,55.25 L83,54.475 " /><path fill="none" fill-opacity="0" stroke="#000000" stroke-opacity="1" stroke-width="0.25" stroke-linecap="round" stroke-linejoin="round" shape-rendering="geometricPrecision" d = "M82.975,42.025 L83,41.675 L82.975,41.675 L82.975,41.675 L82.975,41.675 L82.975,41.675 L82.975,41.675 L82.975,37.65 L83.1,37 L83.45,36.475 L83.975,36.125 L84.625,36 L85.275,36.125 L85.8,36.475 L86.15,37 L86.275,37.65 L86.275,46.4 L86.15,47.05 L85.8,47.575 L85.275,47.925 L84.625,48.05 L83.975,47.925 L83.45,47.575 L83.1,47.05 L82.975,46.4 L82.975,42.025 L83,41.25 " /><path fill="none" fill-opacity="0" stroke="#000000" stroke-opacity="1" stroke-width="0.25" stroke-linecap="round" stroke-linejoin="round" shape-rendering="geometricPrecision" d = "M84.625,32.725 L84.65,32.375 L84.525,32.375 L84.425,32.425 L84.35,32.5 L84.3,32.6 L84.3,32.725 L83.5,32.7 L83.5,32.725 L83.5,32.725 L83.5,32.725 L83.5,32.725 L83.5,32.65 L83.25,32.6 L83.275,32.525 L83.275,32.5 L83.3,32.475 L83.3,32.45 L83.3,32.475 L83.1,32.35 L83.125,32.3 L83.15,32.275 L83.175,32.275 L83.2,32.25 L83.2,32.25 L83.075,32.05 L83.1,32.025 L83.125,32 L83.15,32 L83.175,32 L83.2,32 L83.15,31.75 L83.175,31.75 L83.175,31.75 L83.2,31.75 L83.2,31.75 L83.2,31.75 L83.2,26.1 L83.2,26.1 L83.2,26.1 L83.2,26.1 L83.2,26.1 L83.3,26.1 L83.35,25.875 L83.3,25.875 L83.35,25.875 L83.375,25.875 L83.4,25.9 L83.45,25.925 L83.575,25.725 L83.575,25.725 L83.6,25.75 L83.625,25.75 L83.65,25.775 L83.675,25.8 L83.875,25.65 L83.875,25.675 L83.9,25.7 L83.9,25.725 L83.925,25.75 L83.925,25.8 L84.175,25.75 L84.175,25.75 L84.175,25.775 L84.175,25.775 L84.175,25.8 L84.175,25.825 L85.775,25.825 L85.775,25.8 L85.775,25.8 L85.775,25.8 L85.775,25.8 L85.775,25.875 L86.025,25.925 L86.025,25.9 L86.025,25.95 L86,26 L86,26.05 L85.95,26.1 L86.125,26.25 L86.125,26.25 L86.125,26.25 L86.1,26.25 L86.1,26.275 L86.075,26.3 L86.225,26.5 L86.225,26.5 L86.2,26.525 L86.175,26.525 L86.15,26.55 L86.1,26.55 L86.15,26.775 L86.15,26.775 L86.125,26.775 L86.1,26.775 L86.075,26.775 L86.05,26.775 L86.05,32.425 L86.025,32.425 L86,32.425 L85.975,32.425 L85.95,32.425 L86,32.425 L85.95,32.675 L85.875,32.65 L85.85,32.65 L85.825,32.625 L85.8,32.625 L85.8,32.625 L85.65,32.825 L85.625,32.8 L85.625,32.775 L85.6,32.775 L85.6,32.75 L85.575,32.75 L85.4,32.875 L85.375,32.825 L85.375,32.8 L85.35,32.775 L85.35,32.75 L85.35,32.725 L85.1,32.775 L85.1,32.75 L85.1,32.75 L85.1,32.725 L85.1,32.725 L85.1,32.725 L84.625,32.725 L83.9,32.7 " /><path fill="none" fill-opacity="0" stroke="#000000" stroke-opacity="1" stroke-width="0.25" stroke-linecap="round" stroke-linejoin="round" shape-rendering="geometricPrecision" d = "M2.025,118.375 L1.7,118.35 L1.75,118.15 L1.8,118.1 L1.875,118.05 L1.95,118.025 L2.025,118.025 L2.025,111.325 L2.15,110.7 L2.5,110.175 L3.025,109.825 L3.65,109.7 L4.275,109.825 L4.8,110.175 L5.15,110.7 L5.275,111.325 L5.275,125.425 L5.15,126.05 L4.8,126.575 L4.275,126.925 L3.65,127.05 L3.025,126.925 L2.5,126.575 L2.15,126.05 L2.025,125.425 L2.025,118.375 L2.05,117.6 " /><path fill="none" fill-opacity="0" stroke="#000000" stroke-opacity="1" stroke-width="0.25" stroke-linecap="round" stroke-linejoin="round" shape-rendering="geometricPrecision" d = "M1.975,48.85 L2,48.5 L1.975,48.5 L1.975,48.5 L1.975,48.5 L1.975,48.5 L1.975,48.5 L1.975,41.375 L2.1,40.725 L2.475,40.2 L3,39.825 L3.65,39.7 L4.3,39.825 L4.825,40.2 L5.2,40.725 L5.325,41.375 L5.325,56.3 L5.2,56.95 L4.825,57.475 L4.3,57.825 L3.65,57.975 L3,57.825 L2.475,57.475 L2.1,56.95 L1.975,56.3 L1.975,48.85 L2,48.075 " /><path fill="none" fill-opacity="0" stroke="#000000" stroke-opacity="1" stroke-width="0.25" stroke-linecap="round" stroke-linejoin="round" shape-rendering="geometricPrecision" d = "M87.325,0.35 L87.35,0 L87.25,0 L87.175,0.025 L87.1,0.075 L87.05,0.125 L87,0.3 L86.475,0.275 L84.75,0.2 L83.025,0.275 L81,0.45 L81,0.55 L81.075,0.625 L81.15,0.7 L81.225,0.75 L81.325,0.75 L81.3,9.475 L81.15,15.825 L81.025,18 L80.825,19.325 L80.6,19.2 L80.55,19.025 L80.575,18.825 L80.7,18.7 L80.875,18.65 L80.875,18.225 L80.825,17.175 L80.675,16.175 L80.425,15.175 L80.1,14.25 L79.675,13.35 L79.175,12.475 L78.625,11.675 L77.975,10.95 L77.275,10.25 L76.5,9.65 L75.7,9.1 L74.825,8.625 L73.9,8.25 L72.95,7.95 L71.95,7.725 L70.6,7.575 L70.65,7.4 L70.7,7.35 L70.775,7.3 L70.85,7.275 L70.925,7.275 L70.925,0.4 L70.825,0.4 L70.725,0.45 L70.65,0.525 L70.6,0.625 L70.6,0.75 L17.275,0.75 L17.275,0.85 L17.325,0.95 L17.4,1.025 L17.5,1.075 L17.6,1.075 L17.6,7.95 L17.5,7.95 L17.425,7.9 L17.35,7.825 L17.275,7.75 L17.275,7.65 L16.575,7.725 L15.575,7.95 L14.625,8.25 L13.7,8.625 L12.85,9.1 L12.025,9.65 L11.25,10.25 L10.55,10.95 L9.925,11.675 L9.35,12.475 L8.85,13.35 L8.425,14.25 L8.1,15.175 L7.875,16.175 L7.725,17.175 L7.675,18.225 L7.65,19.325 L7.475,19.275 L7.35,19.125 L7.325,18.95 L7.4,18.75 L7.55,18.65 L7.45,18.375 L7.475,18.375 L7.5,18.375 L7.5,18.375 L7.525,18.375 L7.525,18.375 L7.475,18.075 L7.35,15.9 L7.225,9.55 L7.175,0.075 L7.1,0.075 L7.025,0.1 L6.95,0.15 L6.9,0.2 L6.85,0.375 L5.475,0.275 L3.75,0.2 L2.025,0.275 L0,0.45 L0,0.55 L0.075,0.625 L0.15,0.7 L0.225,0.75 L0.325,0.75 L0.35,162.875 L0.475,162.875 L0.55,162.8 L0.625,162.725 L0.675,162.65 L0.675,162.575 L2.025,162.725 L3.75,162.775 L5.475,162.725 L7.525,162.5 L7.5,162.4 L7.45,162.3 L7.375,162.25 L7.275,162.2 L7.2,162.2 L7.225,153.4 L7.35,147.025 L7.475,144.875 L7.65,143.9 L7.25,144.25 L7.25,144.25 L7.25,144.25 L7.25,144.25 L7.7,143.9 L7.8,143.625 L7.9,143.675 L8.025,143.85 L8.025,144.075 L7.9,144.25 L7.675,144.3 L7.675,144.75 L7.725,145.8 L7.875,146.825 L8.1,147.8 L8.425,148.75 L8.85,149.65 L9.35,150.5 L9.925,151.3 L10.55,152.05 L11.25,152.725 L12.025,153.35 L12.85,153.875 L13.7,154.35 L14.625,154.75 L15.575,155.05 L16.575,155.25 L17.95,155.4 L17.95,155.475 L17.9,155.575 L17.825,155.65 L17.725,155.7 L17.6,155.7 L17.6,162.55 L17.725,162.55 L17.825,162.5 L17.9,162.425 L17.95,162.325 L17.95,162.225 L71.275,162.225 L71.275,162.1 L71.225,162 L71.15,161.925 L71.05,161.875 L70.925,161.875 L70.925,155.025 L71.025,155.025 L71.125,155.075 L71.2,155.125 L71.25,155.225 L71.275,155.325 L71.95,155.25 L72.95,155.05 L73.9,154.75 L74.825,154.35 L75.7,153.875 L76.5,153.35 L77.275,152.725 L77.975,152.05 L78.625,151.3 L79.175,150.5 L79.675,149.65 L80.1,148.75 L80.425,147.8 L80.675,146.825 L80.825,145.8 L80.875,144.75 L80.875,143.65 L81.075,143.7 L81.2,143.85 L81.225,144.05 L81.15,144.225 L80.95,144.325 L81.025,144.975 L81.15,147.175 L81.3,153.525 L81.35,162.875 L81.475,162.875 L81.55,162.8 L81.625,162.725 L81.675,162.65 L81.675,162.575 L83.025,162.725 L84.75,162.775 L86.475,162.725 L88.525,162.5 L88.5,162.4 L88.45,162.3 L88.375,162.25 L88.275,162.2 L88.2,162.2 L88.175,0.075 L88.1,0.075 L88.025,0.1 L87.95,0.15 L87.9,0.2 L87.85,0.375 L87.325,0.35 L86.625,0.25 " /><path fill="none" fill-opacity="0" stroke="#000000" stroke-opacity="1" stroke-width="0.25" stroke-linecap="round" stroke-linejoin="round" shape-rendering="geometricPrecision" d = "M88.525,0 " /></svg>