<?xml version="1.0" encoding="utf-8" standalone="no"?><svg width ="91.35" height ="153.4" xmlns ="http://www.w3.org/2000/svg" xmlns:xlink ="http://www.w3.org/1999/xlink" id = "svg_0" viewBox = "0mm 0mm 91.35mm 153.4mm" version = "1.1" shape-rendering="geometricPrecision"><path fill="none" fill-opacity="0" stroke="#000000" stroke-opacity="1" stroke-width="0.25" stroke-linecap="round" stroke-linejoin="round" shape-rendering="geometricPrecision" d = "M91.2,0 L91.2,0 L91.2,1 " /><path fill="none" fill-opacity="0" stroke="#000000" stroke-opacity="1" stroke-width="0.25" stroke-linecap="round" stroke-linejoin="round" shape-rendering="geometricPrecision" d = "M6.175,31.275 L6.2,31.6 L6.2,31.6 L6.2,31.6 L6.2,31.6 L6.2,31.6 L6.175,31.6 L6.175,42.025 L6.475,42.675 L6.525,42.65 L6.575,42.625 L6.6,42.575 L6.65,42.55 L6.65,42.5 L6.675,42.525 L9.175,42.525 L9.85,42.8 L9.85,42.85 L9.8,42.875 L9.775,42.925 L9.725,42.95 L9.675,42.975 L9.675,43.025 L9.675,53.05 L9.4,53.7 L9.325,53.65 L9.275,53.625 L9.25,53.6 L9.225,53.55 L9.225,53.525 L9.175,53.55 L6.675,53.55 L6.025,53.825 L6.025,53.85 L6.05,53.9 L6.075,53.925 L6.125,53.95 L6.2,54 L6.175,54.05 L6.175,132.7 L6.475,133.35 L6.525,133.325 L6.575,133.3 L6.6,133.25 L6.65,133.225 L6.65,133.175 L6.675,133.2 L11.025,133.2 L11.025,133.3 L10.975,133.4 L10.9,133.475 L10.8,133.525 L10.675,133.525 L10.675,136.425 L10.725,137.4 L10.875,138.375 L11.1,139.325 L11.45,140.25 L11.85,141.125 L12.35,141.975 L12.95,142.75 L13.6,143.5 L14.35,144.15 L15.125,144.75 L15.975,145.25 L16.85,145.65 L17.775,146 L18.725,146.225 L19.675,146.375 L21.025,146.425 L20.975,146.625 L20.8,146.75 L20.6,146.75 L20.425,146.625 L20.35,146.45 L16.925,146.75 L13.15,146.975 L9.8,146.925 L6.45,146.725 L3.875,146.4 L1,145.875 L1,145.95 L1,145.95 L1,145.95 L1,145.95 L1,145.925 L0.8,145.95 L0.8,145.975 L0.8,146 L0.8,146.025 L0.8,146.05 L0.825,146.1 L0.65,146.2 L0.65,146.2 L0.65,146.2 L0.675,146.225 L0.675,146.225 L0.7,146.25 L0.55,146.375 L0.55,146.4 L0.575,146.425 L0.6,146.45 L0.65,146.475 L0.7,146.5 L0.625,146.7 L0.4,146.375 L0.4,146.375 L0.4,146.375 L0.4,146.375 L0.675,146.7 L0.15,149.975 L0.3,150.65 L0.35,150.65 L0.4,150.625 L0.425,150.6 L0.45,150.575 L0.475,150.55 L0.625,150.7 L0.65,150.675 L0.675,150.675 L0.7,150.65 L0.7,150.625 L0.7,150.6 L0.875,150.675 L0.9,150.65 L0.9,150.625 L0.9,150.6 L0.9,150.575 L0.9,150.6 L4.05,151.225 L7.575,151.825 L11.125,152.325 L14.7,152.725 L21.55,153.125 L21.55,153.1 L21.55,153.1 L21.55,153.075 L21.55,153.075 L21.55,153.075 L21.75,153.05 L21.75,153 L21.75,152.95 L21.725,152.925 L21.7,152.9 L21.7,152.875 L21.875,152.75 L21.825,152.7 L21.8,152.7 L21.775,152.675 L21.75,152.65 L21.725,152.65 L21.725,152.625 L21.725,150.35 L21.8,149.725 L22.05,149.175 L22.4,148.7 L22.9,148.325 L23.475,148.075 L24.075,148 L24.675,148.075 L25.25,148.325 L25.75,148.7 L26.1,149.175 L26.35,149.725 L26.425,150.35 L26.425,152.75 L26.725,153.4 L26.775,153.375 L26.825,153.35 L26.85,153.3 L26.9,153.275 L26.9,153.225 L26.925,153.25 L67.925,153.25 L76.65,152.725 L80.225,152.325 L83.775,151.825 L87.3,151.225 L91.15,150.475 L91.15,150.45 L91.15,150.425 L91.15,150.425 L91.125,150.4 L91.125,150.4 L91.275,150.325 L91.275,150.3 L91.25,150.275 L91.25,150.25 L91.225,150.225 L91.2,150.225 L91.35,150.075 L91.325,150.025 L91.275,150 L91.225,149.975 L91.2,149.975 L91.2,149.975 L91.2,149.975 L90.575,146.025 L90.575,146.025 L90.575,146.025 L90.55,146.025 L90.55,146.025 L90.525,146.025 L90.45,145.825 L90.425,145.85 L90.4,145.85 L90.375,145.875 L90.35,145.9 L90.3,145.95 L90.15,145.825 L90.15,145.8 L90.15,145.825 L90.125,145.825 L90.125,145.85 L90.1,145.875 L89.925,145.775 L89.925,145.775 L89.925,145.775 L89.925,145.775 L89.925,145.8 L89.9,145.925 L89.7,145.95 L89.7,145.95 L89.7,145.95 L89.7,145.975 L89.7,145.975 L89.7,146 L87.475,146.4 L84.9,146.725 L81.55,146.925 L78.2,146.975 L74.425,146.75 L70.35,146.375 L70.475,146.125 L70.65,146.075 L70.825,146.1 L70.975,146.2 L71.025,146.4 L71.675,146.375 L72.625,146.225 L73.575,145.975 L74.5,145.65 L75.375,145.25 L76.225,144.725 L77.025,144.15 L77.75,143.475 L78.425,142.75 L79,141.975 L79.5,141.125 L79.925,140.25 L80.25,139.325 L80.475,138.375 L80.625,137.4 L80.675,136.425 L80.675,132.85 L80.8,132.85 L80.9,132.9 L80.975,132.975 L81.025,133.075 L81.025,133.2 L84.675,133.2 L85.35,132.9 L85.325,132.85 L85.3,132.8 L85.25,132.775 L85.225,132.725 L85.175,132.725 L85.175,132.7 L85.175,122.825 L85.1,122.45 L84.875,122.125 L84.55,121.9 L84.175,121.825 L82.175,121.825 L81.8,121.75 L81.475,121.525 L81.25,121.2 L81.175,120.825 L81.175,93.6 L81.25,93.225 L81.475,92.9 L81.8,92.675 L82.175,92.6 L84.175,92.6 L84.55,92.525 L84.875,92.3 L85.1,91.975 L85.175,91.6 L85.175,87.8 L85.1,87.425 L84.875,87.1 L84.55,86.875 L84.175,86.8 L82.175,86.8 L81.8,86.725 L81.475,86.525 L81.25,86.2 L81.175,85.8 L81.175,71.675 L81.25,71.3 L81.475,70.975 L81.8,70.75 L82.175,70.675 L84.175,70.675 L84.55,70.6 L84.875,70.375 L85.1,70.05 L85.175,69.675 L85.175,48.1 L84.9,47.425 L84.875,47.425 L84.825,47.45 L84.8,47.475 L84.775,47.525 L84.725,47.6 L84.675,47.6 L81.675,47.6 L81.025,47.3 L81.075,47.225 L81.1,47.175 L81.125,47.15 L81.175,47.125 L81.2,47.125 L81.175,47.1 L81.175,37.15 L81.475,36.475 L81.525,36.475 L81.55,36.525 L81.6,36.55 L81.625,36.6 L81.65,36.65 L81.675,36.65 L84.675,36.65 L85.35,36.35 L85.325,36.3 L85.3,36.25 L85.25,36.225 L85.225,36.175 L85.175,36.175 L85.175,36.15 L85.175,34.075 L84.9,33.4 L84.875,33.4 L84.825,33.425 L84.8,33.45 L84.775,33.5 L84.725,33.575 L84.675,33.575 L81.675,33.575 L81.025,33.275 L81.075,33.2 L81.1,33.15 L81.125,33.125 L81.175,33.1 L81.2,33.1 L81.175,33.075 L81.175,23.4 L81.475,22.725 L81.525,22.725 L81.55,22.775 L81.6,22.8 L81.625,22.85 L81.65,22.9 L81.675,22.9 L84.675,22.9 L85.35,22.6 L85.325,22.55 L85.3,22.5 L85.25,22.475 L85.225,22.425 L85.175,22.425 L85.175,22.4 L85.175,20.55 L84.9,19.875 L84.875,19.875 L84.825,19.9 L84.8,19.925 L84.775,19.975 L84.725,20.05 L84.675,20.05 L80.35,20.05 L80.35,19.925 L80.4,19.825 L80.475,19.75 L80.575,19.7 L80.675,19.7 L80.675,16.825 L80.625,15.85 L80.475,14.875 L80.25,13.925 L79.9,13 L79.5,12.125 L79,11.275 L78.4,10.5 L77.75,9.75 L77,9.1 L76.225,8.5 L75.375,8 L74.5,7.6 L73.575,7.25 L72.625,7.025 L71.675,6.875 L70.35,6.8 L70.475,6.55 L70.625,6.475 L70.825,6.475 L70.95,6.6 L71.025,6.775 L74.425,6.5 L78.2,6.275 L81.55,6.325 L84.9,6.525 L87.475,6.85 L90.375,7.35 L90.375,7.275 L90.375,7.275 L90.375,7.275 L90.375,7.275 L90.375,7.3 L90.575,7.275 L90.575,7.225 L90.575,7.2 L90.575,7.175 L90.55,7.15 L90.55,7.125 L90.725,7.025 L90.7,7 L90.7,7 L90.7,6.975 L90.7,6.975 L90.675,6.975 L90.825,6.85 L90.775,6.8 L90.725,6.75 L90.675,6.725 L90.625,6.725 L90.675,6.725 L90.75,6.525 L90.3,6.875 L90.3,6.875 L90.3,6.875 L90.3,6.875 L90.7,6.525 L91.2,3.275 L91.075,2.575 L91.05,2.575 L91,2.575 L90.975,2.6 L90.95,2.625 L90.9,2.675 L90.75,2.525 L90.75,2.5 L90.725,2.525 L90.725,2.55 L90.7,2.575 L90.675,2.625 L90.5,2.55 L90.5,2.525 L90.5,2.525 L90.5,2.525 L90.5,2.55 L90.475,2.625 L87.3,2.025 L83.775,1.425 L80.225,0.925 L76.65,0.525 L67.925,0 L23.425,0 L14.7,0.525 L11.125,0.925 L7.575,1.425 L4.05,2.025 L0.225,2.75 L0.225,2.75 L0.225,2.775 L0.225,2.775 L0.225,2.8 L0.25,2.825 L0.075,2.9 L0.075,2.9 L0.075,2.925 L0.1,2.95 L0.1,2.975 L0.15,3 L0,3.15 L0,3.175 L0.025,3.175 L0.05,3.2 L0.075,3.225 L0.175,3.25 L0.15,3.275 L0.8,7.2 L0.825,7.2 L0.825,7.2 L0.85,7.2 L0.85,7.2 L0.85,7.2 L0.925,7.4 L0.975,7.375 L1,7.35 L1.025,7.325 L1.075,7.3 L1.075,7.275 L1.225,7.4 L1.25,7.4 L1.25,7.375 L1.275,7.35 L1.275,7.325 L1.275,7.35 L1.45,7.45 L1.475,7.4 L1.475,7.375 L1.475,7.35 L1.475,7.325 L1.475,7.3 L1.675,7.275 L1.675,7.25 L1.675,7.25 L1.675,7.225 L1.675,7.225 L1.675,7.225 L3.875,6.85 L6.45,6.525 L9.8,6.325 L13.15,6.275 L16.925,6.5 L21.025,6.85 L20.975,7.025 L20.8,7.15 L20.575,7.15 L20.4,7.025 L20.35,6.825 L19.675,6.875 L18.725,7.025 L17.775,7.275 L16.85,7.6 L15.975,8 L15.125,8.525 L14.325,9.1 L13.6,9.775 L12.925,10.5 L12.35,11.275 L11.85,12.125 L11.425,13 L11.1,13.925 L10.875,14.875 L10.725,15.85 L10.675,16.825 L10.675,20.375 L10.575,20.375 L10.475,20.325 L10.4,20.25 L10.35,20.15 L10.35,20.05 L9.675,20.05 L9.025,20.325 L9.025,20.35 L9.05,20.4 L9.075,20.425 L9.125,20.45 L9.2,20.5 L9.175,20.55 L9.175,28.075 L9,28.775 L8.925,28.75 L8.9,28.725 L8.875,28.7 L8.85,28.7 L8.85,28.675 L8.575,28.95 L8.525,28.9 L8.5,28.875 L8.5,28.85 L8.475,28.825 L8.475,28.8 L8.425,28.825 L7.725,28.625 L7.75,28.55 L7.775,28.525 L7.8,28.5 L7.8,28.475 L7.825,28.475 L7.55,28.2 L7.6,28.15 L7.625,28.125 L7.65,28.125 L7.675,28.1 L7.7,28.1 L7.675,28.075 L7.675,20.55 L7.4,19.875 L7.375,19.875 L7.325,19.9 L7.3,19.925 L7.275,19.975 L7.225,20.05 L7.175,20.05 L6.675,20.05 L6.025,20.325 L6.025,20.35 L6.05,20.4 L6.075,20.425 L6.125,20.45 L6.2,20.5 L6.175,20.55 L6.175,31.275 L6.2,32.6 " /><path fill="none" fill-opacity="0" stroke="#000000" stroke-opacity="1" stroke-width="0.25" stroke-linecap="round" stroke-linejoin="round" shape-rendering="geometricPrecision" d = "M30.55,150.975 L30.55,151.3 L30.675,151.3 L30.8,151.225 L30.875,151.125 L30.9,151 L30.9,150.9 L31.025,150.875 L31.4,150.625 L31.65,150.25 L31.75,149.775 L31.65,149.3 L31.4,148.925 L31.025,148.675 L30.55,148.575 L30.075,148.675 L29.7,148.925 L29.45,149.3 L29.35,149.775 L29.45,150.25 L29.7,150.625 L30.075,150.875 L30.55,150.975 L31.375,150.8 " /><path fill="none" fill-opacity="0" stroke="#000000" stroke-opacity="1" stroke-width="0.25" stroke-linecap="round" stroke-linejoin="round" shape-rendering="geometricPrecision" d = "M45.675,151.95 L46.025,151.875 L46.025,151.875 L46.025,151.9 L46.025,151.9 L46.025,151.925 L46.025,151.95 L48.425,151.95 L48.8,151.875 L49.125,151.65 L49.35,151.325 L49.425,150.95 L49.425,149.45 L49.15,148.775 L49.125,148.775 L49.075,148.8 L49.05,148.825 L49.025,148.875 L48.975,148.95 L48.925,148.95 L42.425,148.95 L41.775,149.225 L41.775,149.25 L41.8,149.3 L41.825,149.325 L41.875,149.35 L41.95,149.4 L41.925,149.45 L41.925,150.95 L42,151.325 L42.225,151.65 L42.55,151.875 L42.925,151.95 L45.675,151.95 L47.025,151.95 " /><path fill="none" fill-opacity="0" stroke="#000000" stroke-opacity="1" stroke-width="0.25" stroke-linecap="round" stroke-linejoin="round" shape-rendering="geometricPrecision" d = "M45.675,26.825 L46.025,26.825 L46.025,26.8 L46.025,26.8 L46.025,26.775 L46.025,26.775 L46.025,26.775 L46.1,26.775 L46.5,26.65 L46.85,26.475 L47.15,26.2 L47.4,25.9 L47.6,25.55 L47.725,25.15 L47.775,24.725 L47.725,24.3 L47.6,23.925 L47.4,23.55 L47.15,23.25 L46.85,23 L46.5,22.8 L46.1,22.675 L45.675,22.625 L45.25,22.675 L44.85,22.8 L44.5,23 L44.2,23.25 L43.95,23.55 L43.75,23.925 L43.625,24.3 L43.575,24.725 L43.625,25.15 L43.75,25.55 L43.95,25.9 L44.2,26.2 L44.5,26.475 L44.85,26.65 L45.25,26.775 L45.675,26.825 L46.45,26.725 " /><path fill="none" fill-opacity="0" stroke="#000000" stroke-opacity="1" stroke-width="0.25" stroke-linecap="round" stroke-linejoin="round" shape-rendering="geometricPrecision" d = "M45.675,34.55 L46.025,34.5 L46.025,34.5 L46.025,34.5 L46.025,34.5 L46.025,34.5 L46.025,34.525 L46.1,34.525 L46.5,34.4 L46.85,34.2 L47.15,33.95 L47.4,33.625 L47.6,33.275 L47.725,32.875 L47.775,32.475 L47.725,32.05 L47.6,31.65 L47.4,31.3 L47.15,30.975 L46.85,30.725 L46.5,30.525 L46.1,30.4 L45.675,30.375 L45.25,30.4 L44.85,30.525 L44.5,30.725 L44.2,30.975 L43.95,31.3 L43.75,31.65 L43.625,32.05 L43.575,32.475 L43.625,32.875 L43.75,33.275 L43.95,33.625 L44.2,33.95 L44.5,34.2 L44.85,34.4 L45.25,34.525 L45.675,34.55 L46.45,34.5 " /><path fill="none" fill-opacity="0" stroke="#000000" stroke-opacity="1" stroke-width="0.25" stroke-linecap="round" stroke-linejoin="round" shape-rendering="geometricPrecision" d = "M45.675,36.75 L46.025,36.725 L46.85,36.75 L47.475,36.7 L48.05,36.525 L48.575,36.275 L49.05,35.925 L49.45,35.5 L49.775,35 L50,34.45 L50.125,33.85 L50.375,31.3 L50.45,28.75 L50.375,26.2 L50.125,23.65 L50,23.05 L49.775,22.5 L49.45,22 L49.05,21.575 L48.575,21.225 L48.05,20.975 L47.475,20.8 L46.85,20.75 L44.5,20.75 L43.875,20.8 L43.3,20.975 L42.775,21.225 L42.3,21.575 L41.9,22 L41.575,22.5 L41.35,23.05 L41.225,23.65 L40.975,26.2 L40.9,28.75 L40.975,31.3 L41.225,33.85 L41.35,34.45 L41.575,35 L41.9,35.5 L42.3,35.925 L42.775,36.275 L43.3,36.525 L43.875,36.7 L44.5,36.75 L45.675,36.75 L47.025,36.725 " /><path fill="none" fill-opacity="0" stroke="#000000" stroke-opacity="1" stroke-width="0.25" stroke-linecap="round" stroke-linejoin="round" shape-rendering="geometricPrecision" d = "M45.675,37.45 L46.025,37.45 L46.85,37.45 L47.6,37.375 L48.3,37.175 L48.925,36.875 L49.5,36.45 L50,35.925 L50.375,35.325 L50.675,34.65 L50.825,33.925 L51.05,31.35 L51.15,28.75 L51.05,26.15 L50.825,23.575 L50.675,22.85 L50.375,22.175 L50,21.575 L49.5,21.05 L48.925,20.625 L48.3,20.325 L47.6,20.125 L46.85,20.05 L44.5,20.05 L43.75,20.125 L43.05,20.325 L42.425,20.625 L41.85,21.05 L41.35,21.575 L40.975,22.175 L40.675,22.85 L40.525,23.575 L40.3,26.15 L40.2,28.75 L40.3,31.35 L40.525,33.925 L40.675,34.65 L40.975,35.325 L41.35,35.925 L41.85,36.45 L42.425,36.875 L43.05,37.175 L43.75,37.375 L44.5,37.45 L45.675,37.45 L47.025,37.45 " /><path fill="none" fill-opacity="0" stroke="#000000" stroke-opacity="1" stroke-width="0.25" stroke-linecap="round" stroke-linejoin="round" shape-rendering="geometricPrecision" d = "M91.2,0 " /></svg>